Coordinates
version=1
nRows=6
nColumns=36
inDegrees=yes

Units are S.I. units (second, meters, Newtons, ...)
If the header above contains a line with 'inDegrees', this indicates whether rotational values are in degrees (yes) or radians (no).

endheader
time	pelvis_tilt	pelvis_list	pelvis_rotation	pelvis_tx	pelvis_ty	pelvis_tz	hip_flexion_r	hip_adduction_r	hip_rotation_r	knee_angle_r	knee_angle_r_beta	ankle_angle_r	subtalar_angle_r	mtp_angle_r	hip_flexion_l	hip_adduction_l	hip_rotation_l	knee_angle_l	knee_angle_l_beta	ankle_angle_l	subtalar_angle_l	mtp_angle_l	lumbar_extension	lumbar_bending	lumbar_rotation	arm_flex_r	arm_add_r	arm_rot_r	elbow_flex_r	pro_sup_r	arm_flex_l	arm_add_l	arm_rot_l	elbow_flex_l	pro_sup_l
      4.43333330	    -30.52869465	      6.21446347	     -8.70986724	      1.00936896	      0.73476095	      0.02761472	     81.07176652	     -2.44790601	     -0.40115120	     78.15504735	      1.36406290	     34.26433620	    -20.01672839	     -7.49999987	     82.38526216	     -2.46115159	      7.29225631	     75.56327204	      1.31882789	     29.99327213	     -9.72766682	     -7.49999987	    -21.60434346	     -1.65278756	     -1.45005644	     25.35661209	    -15.80419974	      0.31747067	     76.09275066	     93.23491932	    376.59097230	    -25.67866516	    329.70037293	     47.62440325	     71.92900264
      4.45000000	    -32.21004910	      6.50291468	     -8.44117946	      1.01285515	      0.71094589	      0.02532269	     85.31662733	     -2.15193947	      0.16987026	     82.39686562	      1.43809660	     35.82955992	    -20.34485841	     -7.49999987	     86.63588617	     -1.87467852	      8.02121031	     79.72990501	      1.39154935	     32.17526414	     -9.74483259	     -7.49999987	    -23.13925301	     -1.89071744	     -1.73054393	     28.34922934	    -15.89872122	      1.29928081	     75.14785306	     93.46742428	    379.67477387	    -28.08985788	    330.61164365	     45.60119396	     71.82380762
      4.46666670	    -34.09666814	      6.76511885	     -8.44553132	      1.00962188	      0.67969425	      0.02199621	     89.50710119	     -1.88220192	      0.67229667	     86.07659771	      1.50232004	     37.63417269	    -19.51881601	     -7.49999987	     91.37090945	     -1.79779932	      8.45842056	     83.93628899	      1.46496460	     33.93959191	     -9.66226409	     -7.49999987	    -23.37286480	     -1.85717182	     -1.60877573	     31.16136207	    -16.40028550	      3.26553690	     74.46415677	     93.79406171	    382.52098686	    -30.52423501	    333.07890974	     42.95427725	     71.58185627
      4.48333330	    -36.11552422	      6.94347424	     -8.32914513	      1.01159375	      0.66096542	      0.03173975	     93.22642501	     -1.26912044	      0.66203049	     89.29054134	      1.55841394	     39.59518643	    -18.75502589	     -7.49999987	     95.28231605	     -2.15967215	      8.96501231	     87.07170189	      1.51968788	     35.20094006	     -9.40156328	     -7.49999987	    -23.30054096	     -2.37274986	     -0.67047840	     32.44253187	    -16.55300522	      3.30334249	     73.57048157	     93.92984922	    386.25394821	    -32.95548685	    337.25924537	     40.78421925	     69.86967190
      4.50000000	    -37.85370667	      7.08221138	     -8.11944832	      1.01158224	      0.64689830	      0.03005026	     96.47946828	     -0.80562022	      0.75051246	     91.94031742	      1.60466125	     40.15145186	    -19.20688628	     -7.49999987	     98.53345264	     -2.42890285	      9.15631350	     89.43618403	      1.56095588	     36.41420577	     -8.74774791	     -7.49999987	    -23.34485369	     -2.60928686	     -0.48315127	     33.97029530	    -16.62506983	      3.97094873	     72.12923014	     93.97168691	    388.93949064	    -34.41984007	    338.09876426	     40.83110356	     69.75963661
      4.51666670	    -39.37356772	      7.28934345	     -7.95103701	      1.00358648	      0.63526688	      0.02605490	     99.81601065	     -0.45721292	      1.05488517	     94.08286124	      1.64205570	     39.32017689	    -20.33026261	     -7.49999987	    101.43339547	     -2.53492666	      9.19642904	     91.05282115	      1.58917152	     36.88093041	     -8.68789699	     -7.49999987	    -23.40421802	     -2.68028173	     -0.14446032	     36.19844971	    -16.91983952	      4.81641756	     69.78991814	     94.01497756	    392.15247280	    -35.49490885	    340.04554145	     41.01159859	     69.69984506
